<svg width="60" height="60" viewBox="0 0 60 60" fill="none" xmlns="http://www.w3.org/2000/svg">
<rect width="60" height="60" rx="30" fill="#D8F3FF" fill-opacity="0.62"/>
<rect x="14.25" y="14.25" width="31.5" height="31.5" rx="5.75" stroke="#106285" stroke-width="0.5"/>
<path d="M27.304 36.59C26.296 36.59 25.444 36.41 24.748 36.05C24.052 35.69 23.5 35.21 23.092 34.61C22.684 33.998 22.384 33.308 22.192 32.54C22.012 31.772 21.922 30.98 21.922 30.164V23.72H23.164V30.164C23.164 30.824 23.23 31.472 23.362 32.108C23.506 32.744 23.734 33.314 24.046 33.818C24.358 34.322 24.778 34.724 25.306 35.024C25.834 35.312 26.494 35.456 27.286 35.456C28.102 35.456 28.774 35.306 29.302 35.006C29.842 34.694 30.262 34.286 30.562 33.782C30.874 33.278 31.096 32.714 31.228 32.09C31.36 31.454 31.426 30.812 31.426 30.164V23.72H32.686V30.164C32.686 31.016 32.59 31.832 32.398 32.612C32.206 33.392 31.894 34.076 31.462 34.664C31.042 35.252 30.49 35.72 29.806 36.068C29.122 36.416 28.288 36.59 27.304 36.59ZM35.6899 36.5V23.72H36.9499V36.5H35.6899Z" fill="#106285"/>
</svg>
