<svg width="60" height="60" viewBox="0 0 60 60" fill="none" xmlns="http://www.w3.org/2000/svg">
<rect width="60" height="60" rx="30" fill="#D8F3FF" fill-opacity="0.62"/>
<path d="M32.5 38.9583H27.5C22.975 38.9583 21.0417 37.025 21.0417 32.5V27.5C21.0417 22.975 22.975 21.0416 27.5 21.0416H32.5C37.025 21.0416 38.9584 22.975 38.9584 27.5V32.5C38.9584 37.025 37.025 38.9583 32.5 38.9583ZM27.5 22.2916C23.6584 22.2916 22.2917 23.6583 22.2917 27.5V32.5C22.2917 36.3416 23.6584 37.7083 27.5 37.7083H32.5C36.3417 37.7083 37.7084 36.3416 37.7084 32.5V27.5C37.7084 23.6583 36.3417 22.2916 32.5 22.2916H27.5Z" fill="#106285"/>
<path d="M37.8996 26.5499H22.0996C21.7579 26.5499 21.4746 26.2666 21.4746 25.9249C21.4746 25.5833 21.7496 25.2999 22.0996 25.2999H37.8996C38.2413 25.2999 38.5246 25.5833 38.5246 25.9249C38.5246 26.2666 38.2496 26.5499 37.8996 26.5499Z" fill="#106285"/>
<path d="M27.0996 26.4332C26.7579 26.4332 26.4746 26.1498 26.4746 25.8082V21.7582C26.4746 21.4165 26.7579 21.1332 27.0996 21.1332C27.4413 21.1332 27.7246 21.4165 27.7246 21.7582V25.8082C27.7246 26.1498 27.4413 26.4332 27.0996 26.4332Z" fill="#106285"/>
<path d="M32.9004 26.0582C32.5587 26.0582 32.2754 25.7748 32.2754 25.4332V21.7582C32.2754 21.4165 32.5587 21.1332 32.9004 21.1332C33.2421 21.1332 33.5254 21.4165 33.5254 21.7582V25.4332C33.5254 25.7832 33.2504 26.0582 32.9004 26.0582Z" fill="#106285"/>
<path d="M29.2417 35.0998C28.9417 35.0998 28.6583 35.0248 28.4 34.8831C27.8333 34.5498 27.5 33.8831 27.5 33.0415V31.0415C27.5 30.1998 27.8333 29.5248 28.4083 29.1915C28.9833 28.8581 29.7333 28.9081 30.4583 29.3331L32.1917 30.3331C32.9167 30.7498 33.3417 31.3748 33.3417 32.0415C33.3417 32.7081 32.9167 33.3331 32.1833 33.7498L30.45 34.7498C30.05 34.9831 29.6333 35.0998 29.2417 35.0998ZM29.25 30.2248C29.1667 30.2248 29.0917 30.2415 29.0333 30.2748C28.8583 30.3748 28.75 30.6581 28.75 31.0415V33.0415C28.75 33.4165 28.8583 33.6998 29.0333 33.8081C29.2083 33.9081 29.5083 33.8581 29.8333 33.6665L31.5667 32.6665C31.8917 32.4748 32.0917 32.2415 32.0917 32.0415C32.0917 31.8415 31.9 31.6081 31.5667 31.4165L29.8333 30.4165C29.6167 30.2915 29.4083 30.2248 29.25 30.2248Z" fill="#106285"/>
</svg>
